<svg width="445" height="328" viewBox="0 0 445 328" fill="none" xmlns="http://www.w3.org/2000/svg">
<g clip-path="url(#clip0)">
<path d="M420.342 328C421.405 327.816 422.398 327.35 423.218 326.649C423.561 326.44 423.916 326.251 424.281 326.084L424.784 325.83C424.977 325.726 425.192 325.672 425.411 325.671C425.99 325.748 426.532 325.998 426.965 326.389C427.404 326.782 427.952 327.033 428.537 327.107C429.004 327.087 429.444 326.884 429.763 326.542C430.2 326.06 430.809 325.771 431.459 325.739C432.402 325.864 433.296 326.239 434.047 326.824L434.149 326.886C434.516 327.145 434.949 327.294 435.398 327.316C436.381 327.316 437.415 326.378 439.478 324.417L439.218 322.365V322.291L439.066 321.031C439.286 321.065 439.523 321.082 439.75 321.093C440.257 321.089 440.76 321.193 441.225 321.398C441.721 321.721 442.162 322.122 442.53 322.585C442.705 322.783 442.886 322.987 443.095 323.151C443.181 323.074 443.272 323.002 443.367 322.936C443.57 322.783 443.785 322.631 443.824 322.438C443.954 321.771 444.141 321.082 444.316 320.415C444.883 318.783 445.095 317.049 444.938 315.328C444.571 314.1 443.9 312.984 442.988 312.084C442.365 311.391 441.817 310.633 441.355 309.823L440.716 308.602C437.415 302.272 434.007 295.727 430.04 289.623C429.237 288.385 428.525 287.063 427.83 285.785C426.628 283.327 425.108 281.037 423.309 278.975C422.904 278.423 422.645 277.777 422.557 277.098C422.47 276.415 422.21 275.765 421.8 275.211C421.505 274.938 421.165 274.72 420.794 274.566C420.008 274.182 419.2 273.786 419.517 272.356C419.613 271.938 419.206 271.356 418.884 270.893L418.799 270.774C417.318 268.632 415.973 266.36 414.645 264.161C413.317 261.962 412 259.741 410.542 257.633C408.569 254.768 406.8 251.744 405.088 248.822L404.268 247.426C403.341 245.849 402.273 244.317 401.239 242.836C399.204 240.167 397.521 237.248 396.232 234.149C396.132 233.99 395.994 233.858 395.83 233.765L395.791 233.737C394.743 232.942 393.696 232.15 392.648 231.363L391.592 230.571C392.694 228.74 391.739 227.497 390.727 226.186L390.326 225.66C389.862 224.99 389.454 224.283 389.105 223.546C388.701 222.666 388.195 221.837 387.596 221.076C385.53 218.537 383.692 215.821 382.102 212.96C381.125 211.315 380.113 209.614 379.022 208.009C378.271 206.912 377.57 205.793 376.762 204.499C376.372 203.872 375.953 203.205 375.501 202.487C376.305 202.218 377.146 202.075 377.994 202.063C378.928 202.092 379.845 202.314 380.689 202.716C381.532 203.118 382.283 203.69 382.894 204.397C383.356 204.913 383.754 205.482 384.081 206.093C384.815 207.325 385.573 208.602 387.404 208.766C387.291 210.462 388.427 211.084 389.529 211.688C390.341 212.013 391.013 212.613 391.428 213.384C391.683 213.925 392.068 214.395 392.548 214.751C393.028 215.108 393.589 215.341 394.18 215.43C395.072 215.605 395.884 216.065 396.492 216.741C395.683 218.375 395.683 218.375 399.515 222.156C400.189 223.065 401.051 223.818 402.041 224.364C403.032 224.91 404.129 225.236 405.257 225.321C405.365 225.926 405.472 226.542 405.591 227.175V227.248L405.896 228.944L406.682 228.243L408.264 226.847L407.699 228.819L407.072 231.029C407.712 231.089 408.339 231.247 408.931 231.498C409.648 231.805 410.413 231.985 411.192 232.03C411.869 232.023 412.53 231.827 413.102 231.464H413.158C413.356 231.464 413.978 232.177 414.696 232.996C415.074 233.431 415.47 233.878 415.826 234.262L417.793 230.6L419.567 227.288C417.57 223.386 415.009 219.8 411.966 216.645C410.395 215.051 408.92 213.31 407.495 211.626C406.071 209.942 404.489 208.077 402.85 206.432C400.425 203.99 397.712 201.758 395.084 199.599L393.485 198.276C392.425 197.347 391.435 196.34 390.523 195.264C388.968 193.211 386.937 191.566 384.606 190.471C382.635 187.105 379.756 184.363 376.298 182.558C373.625 181.049 371.235 179.087 369.234 176.759C366.69 173.877 363.345 171.818 359.626 170.847C358.545 170.542 357.426 170.39 356.303 170.395C355.794 170.395 355.268 170.35 354.76 170.299L348.017 174.414L347.616 174.719L347.051 175.126L346.926 175.222C342.473 178.732 342.405 178.8 344.219 183.762C345.062 185.92 346.028 188.028 347.113 190.075C347.582 191.002 348.062 191.952 348.515 192.901L350.939 193.031H350.973L353.234 193.15C353.036 193.404 352.844 193.613 352.669 193.8C352.412 194.033 352.217 194.326 352.103 194.653C351.504 197.513 351.182 200.469 354.251 202.464C354.217 203.432 354.384 204.396 354.741 205.296C355.098 206.195 355.637 207.011 356.325 207.692C357.177 208.667 357.84 209.792 358.281 211.01C358.963 213.117 359.817 215.164 360.835 217.131C361.236 217.962 361.649 218.827 362.028 219.658C362.265 220.189 362.531 220.698 362.808 221.234V221.263L363.107 221.828C362.645 222.259 362.043 222.512 361.412 222.54C360.246 222.34 359.201 221.704 358.49 220.76C355.5 217.742 352.442 214.684 349.481 211.717C347.22 209.456 344.96 207.195 342.699 204.934C338.357 200.547 333.662 196.524 328.66 192.907C328.115 192.448 327.663 191.89 327.326 191.262C327.019 190.718 326.638 190.218 326.196 189.776C323.201 187.029 319.934 184.152 315.916 180.733C314.759 179.708 313.664 178.615 312.638 177.46C310.839 175.249 308.626 173.412 306.121 172.051C305.235 171.547 304.464 170.861 303.861 170.039C303.316 169.324 302.666 168.695 301.933 168.174C301.021 167.56 300.21 166.807 299.531 165.941C299.294 165.67 299.051 165.376 298.791 165.111C296.426 162.554 293.693 160.365 290.681 158.616C290.166 158.248 289.743 157.766 289.443 157.209C288.923 156.412 288.386 155.587 287.403 155.587C286.978 155.603 286.562 155.718 286.188 155.92C285.809 155.429 285.436 154.914 285.058 154.417C284.272 153.286 283.411 152.21 282.48 151.195C277.962 146.676 273.044 142.574 267.786 138.942C265.61 137.31 263.52 135.567 261.524 133.72C260.631 132.923 259.715 132.103 258.8 131.317C256.952 129.729 255.081 128.113 253.278 126.547C249.249 123.049 245.078 119.437 240.873 116.006C232.717 109.348 224.279 102.736 216.378 96.5862C214.988 95.5048 213.6 94.4196 212.213 93.3307L212.174 93.2967C206.629 88.9447 200.87 84.4514 194.998 80.3933C189.861 76.8609 184.825 73.0458 179.931 69.3325C174.528 65.2348 168.944 61.0015 163.207 57.1468C155.533 51.9866 146.535 45.8429 137.995 39.5014C133.406 36.1102 128.58 32.866 123.917 29.7461C119.854 27.0275 115.649 24.2242 111.619 21.3021C108.358 18.9339 104.803 16.8597 101.361 14.8532C98.8745 13.4007 96.3087 11.9029 93.8728 10.3317C91.5443 8.80564 89.1084 7.37569 86.7573 5.98531C84.0501 4.38581 81.2526 2.73544 78.6019 0.94942C78.1703 0.677776 77.7143 0.446933 77.2399 0.259881C77.0138 0.163798 76.7878 0.0620624 76.5617 -0.0396729C74.951 2.78631 76.5617 4.20495 78.1328 5.57272L78.5906 5.97966C79.7126 6.94257 80.8841 7.84622 82.1003 8.68695C82.8633 9.25214 83.7224 9.86256 84.7227 10.6086C81.3932 10.0565 78.2801 8.59767 75.7253 6.39225C75.1601 5.96836 74.6345 5.56707 74.0806 5.18839C73.3031 4.52916 72.3428 4.12297 71.3282 4.02408C70.6116 4.0525 69.9161 4.27521 69.3163 4.66841L70.6274 7.32483L64.3767 8.8452C64.5858 9.33127 64.8175 9.77212 65.0266 10.1565C65.4166 10.8912 65.7274 11.4734 65.5918 11.852C65.4561 12.2307 64.8062 12.6546 64.1619 12.9824C63.8793 13.135 63.5968 13.2876 63.3255 13.4572C63.6081 13.9915 63.992 14.4657 64.4558 14.8532C64.9619 15.1803 65.3573 15.6527 65.5903 16.2084C65.8233 16.7641 65.8829 17.3773 65.7614 17.9675C65.7162 18.154 65.9535 18.4987 66.1004 18.6909C66.2436 18.899 66.4237 19.079 66.6317 19.2222C66.9887 19.0223 67.3873 18.9081 67.796 18.8887C68.672 18.8887 69.0958 19.6235 69.548 20.4035C70.0001 21.1834 70.3901 21.856 71.1926 22.0425L71.5317 22.116C72.7977 22.3873 74.9227 22.8338 74.9962 25.2189C74.9962 25.3602 75.4766 25.428 76.0247 25.5072C76.8386 25.6259 77.8559 25.7728 78.1781 26.208C78.4173 26.4864 78.617 26.7964 78.7715 27.1293C79.0315 27.7623 79.2745 28.3614 80.1223 28.3614C80.3126 28.3597 80.5021 28.3369 80.6874 28.2936C80.8404 28.267 80.9956 28.2557 81.1508 28.2597C81.5239 28.2597 81.8517 28.3162 81.863 28.3784C82.4281 31.3117 84.5701 31.8995 86.6556 32.4704C87.7659 32.698 88.8252 33.1271 89.7809 33.7364C90.1658 34.0018 90.5722 34.2344 90.9961 34.4316C92.1264 34.9968 93.2567 35.562 93.3472 37.2237C93.445 37.2178 93.5432 37.2178 93.6411 37.2237C94.8336 37.2237 95.2574 38.2467 95.6361 39.151L95.6643 39.2245C96.0543 40.1797 96.4273 41.0783 97.4446 41.0783C97.6356 41.0759 97.8255 41.0493 98.0098 40.9992C98.1937 40.947 98.3838 40.9204 98.575 40.9201C99.5131 40.9201 99.9992 41.7113 100.468 42.48C100.937 43.2487 101.418 44.0456 102.322 44.0456C102.678 44.0335 103.028 43.9428 103.345 43.7799C103.498 43.7799 103.91 44.4412 104.43 45.2099C104.82 45.8034 105.255 46.4816 105.623 46.9337C105.867 47.1423 106.152 47.2973 106.459 47.3888C106.767 47.4803 107.09 47.5063 107.409 47.465C107.724 47.4281 108.044 47.4541 108.35 47.5414C108.655 47.6287 108.94 47.7756 109.189 47.9737C109.349 48.2043 109.46 48.4649 109.517 48.7398C109.573 49.0148 109.573 49.2983 109.517 49.5732C110.037 49.7484 110.557 49.9632 111.065 50.1667C112.171 50.6886 113.351 51.0356 114.564 51.1953C117.225 51.3931 118.305 52.5179 118.294 55.0895C118.314 55.3894 118.402 55.6808 118.552 55.9414C118.702 56.2019 118.909 56.4248 119.158 56.5929C119.678 56.8263 120.217 57.0154 120.769 57.1581C121.561 57.3231 122.313 57.6398 122.985 58.0907C123.573 58.6863 124.05 59.3832 124.392 60.148C124.731 60.7923 125.03 61.3519 125.245 61.3519C125.534 61.2844 125.83 61.2484 126.127 61.2445C127.557 61.2445 128.173 62.3014 128.766 63.3244C129.286 64.2174 129.823 65.1443 130.903 65.41L133.163 64.2796L134.294 63.7144C135.338 66.2664 137.106 68.457 139.38 70.0163C141.206 71.3518 142.743 73.0415 143.901 74.9844C144.18 75.5731 144.623 76.0689 145.176 76.4127C145.729 76.7565 146.37 76.9337 147.021 76.923C147.21 76.9233 147.399 76.912 147.586 76.8891C147.995 76.8388 148.406 76.8124 148.818 76.81C149.503 76.755 150.192 76.8461 150.84 77.0773C151.487 77.3084 152.078 77.6744 152.573 78.151C153.068 78.6276 153.457 79.2039 153.713 79.8419C153.969 80.4798 154.086 81.1648 154.057 81.8515C154.125 82.558 154.837 83.7732 155.295 83.7902C156.303 83.9062 157.268 84.2631 158.109 84.8307C158.95 85.3983 159.643 86.16 160.127 87.0513C161.024 88.5457 162.41 89.6839 164.05 90.2729C164.838 90.5771 165.524 91.0984 166.028 91.7764C166.373 92.2826 166.826 92.7068 167.353 93.0193C167.88 93.3318 168.47 93.5249 169.08 93.585C169.302 93.5836 169.523 93.5609 169.741 93.5172C169.871 93.5172 170.029 93.8167 170.21 94.1671C170.328 94.4068 170.464 94.6373 170.617 94.8567C170.835 95.1372 171.069 95.4051 171.318 95.6593C171.816 96.1039 172.204 96.6595 172.448 97.2814C172.539 97.6983 172.789 98.0634 173.144 98.2997C173.5 98.5359 173.933 98.6247 174.353 98.5474H175.127C175.527 98.4811 175.937 98.5523 176.291 98.7494C176.645 98.9465 176.922 99.2578 177.077 99.6326C177.789 101.11 178.806 102.42 180.061 103.476C180.712 104.044 181.409 104.556 182.146 105.008C182.956 105.494 183.714 106.062 184.407 106.703C185.491 107.689 186.798 108.397 188.216 108.766C188.538 108.879 188.86 108.987 189.188 109.111C189.895 109.371 190.403 110.337 190.884 111.276C191.364 112.214 191.833 113.073 192.427 113.135C193.278 113.264 194.089 113.585 194.797 114.075C195.505 114.565 196.092 115.21 196.513 115.961C196.97 116.631 197.509 117.24 198.118 117.775C198.932 118.427 199.749 119.077 200.571 119.725C201.82 120.709 203.103 121.726 204.352 122.749C204.697 123.047 205.026 123.364 205.335 123.699C205.703 124.206 206.175 124.628 206.72 124.936C207.265 125.244 207.87 125.431 208.494 125.485C208.683 125.485 208.872 125.472 209.06 125.445C209.218 125.445 209.382 125.756 209.563 126.118C209.721 126.485 209.943 126.822 210.218 127.112C210.829 127.664 211.38 128.278 211.863 128.944C212.316 129.764 212.967 130.457 213.757 130.96C214.546 131.464 215.45 131.762 216.384 131.826H216.52C216.791 131.826 217.051 132.205 217.322 132.6C217.486 132.855 217.675 133.092 217.887 133.307C221.646 136.822 225.466 140.372 229.191 143.808L231.118 145.6C231.396 145.538 231.681 145.506 231.966 145.504C233.576 145.504 234.311 146.702 235.018 147.861C235.366 148.514 235.818 149.106 236.357 149.613C238.499 151.371 240.618 153.23 242.67 155.027C243.84 156.056 245.049 157.113 246.248 158.142C246.535 158.339 246.863 158.469 247.208 158.52L247.344 158.554H247.372C249.242 158.703 251.06 159.237 252.713 160.122C254.367 161.007 255.819 162.224 256.98 163.698C257.607 163.579 258.263 163.404 258.896 163.228C259.975 162.882 261.094 162.675 262.225 162.612C262.592 162.609 262.959 162.652 263.316 162.742C264.915 163.166 265.525 166.699 265.678 167.739L259.461 163.844C259.965 164.96 260.678 165.967 261.564 166.812C262.084 167.377 262.457 167.739 262.445 168.168C262.389 169.547 263.123 169.751 263.83 169.954C264.171 170.02 264.492 170.163 264.768 170.372C267.17 172.543 269.589 174.781 271.929 176.946C275.031 179.817 278.242 182.79 281.457 185.644C281.921 186.108 282.303 186.647 282.588 187.238C283.153 188.3 283.775 189.403 285.159 189.403C285.53 189.395 285.898 189.332 286.25 189.216C286.941 190.13 287.76 190.941 288.68 191.624C289.641 192.18 290.447 192.969 291.024 193.918C291.601 194.867 291.93 195.946 291.981 197.055C291.981 197.157 291.981 197.508 292.122 197.621C294.993 199.983 297.926 202.368 300.758 204.674L302.103 205.771C302.367 205.705 302.639 205.671 302.911 205.669C303.536 205.74 304.137 205.953 304.668 206.29C305.199 206.628 305.645 207.083 305.974 207.619C306.217 207.901 306.466 208.184 306.726 208.455L308.93 210.648C313.649 215.138 318.068 219.932 322.161 224.999C322.325 225.213 322.494 225.44 322.664 225.671C323.794 227.192 325.049 228.91 327.309 228.91C327.617 228.909 327.923 228.881 328.225 228.825H328.276C328.672 228.825 329.321 229.554 329.57 230.046C329.819 230.581 330.03 231.132 330.203 231.696C330.431 232.648 330.874 233.536 331.497 234.29C332.102 234.77 332.814 235.095 333.572 235.24C334.355 235.37 335.084 235.725 335.668 236.263C337.941 239.066 339.955 242.068 341.687 245.233C343.647 248.59 346.822 251.067 350.555 252.151V256.067C351.906 257.514 353.381 258.893 354.833 260.227C356.778 261.955 358.616 263.799 360.338 265.749C363.302 269.376 366.636 272.685 370.285 275.623L371.07 276.228C373.728 277.762 375.674 280.282 376.485 283.242C376.547 283.581 376.892 283.858 377.259 284.146C377.445 284.286 377.621 284.439 377.785 284.604L382.871 290.041C386.985 294.439 391.236 298.983 395.378 303.493C396.797 305.036 398.17 306.669 399.493 308.252C401.691 310.973 404.05 313.561 406.557 316.001C406.89 316.415 407.1 316.914 407.162 317.442C407.212 317.681 407.274 317.916 407.348 318.149H411.288C411.423 318.42 411.587 318.714 411.74 318.951C412.118 319.508 412.399 320.126 412.571 320.777C412.733 322.05 413.226 323.258 414 324.281C414.775 325.305 415.804 326.107 416.985 326.61L418.075 327.175C418.76 327.615 419.534 327.897 420.342 328ZM366.255 197.095C367.632 198.083 368.813 199.319 369.737 200.74C371.178 203.041 372.562 205.409 373.958 207.698C375.089 209.608 376.264 211.564 377.445 213.48C378.135 214.61 378.898 215.679 379.638 216.73C380.26 217.617 380.904 218.527 381.498 219.454C382.504 221.003 383.476 222.614 384.414 224.168L385.544 226.056C385.974 226.751 386.392 227.452 386.81 228.152C387.709 229.65 388.63 231.188 389.636 232.674L389.992 233.2C393.005 237.388 395.652 241.828 397.905 246.47C398.14 246.967 398.412 247.445 398.718 247.9C398.854 248.109 398.984 248.319 399.108 248.528C399.855 249.724 400.666 250.879 401.539 251.987C403.377 254.093 404.75 256.564 405.568 259.238C405.647 259.829 405.915 260.378 406.331 260.804C409.231 263.133 411.494 266.159 412.91 269.598C413.181 270.13 413.475 270.655 413.729 271.169C414.407 272.365 415.162 273.515 415.99 274.612C417.998 276.889 419.252 279.732 419.579 282.75C420.924 283.186 421.382 284.339 421.839 285.452C422.043 286.2 422.461 286.873 423.043 287.385C424.243 288.258 425.17 289.453 425.716 290.833C425.971 291.33 426.231 291.839 426.547 292.393C426.084 292.393 425.643 292.432 425.253 292.46C424.863 292.489 424.688 292.511 424.45 292.511C424.128 292.511 423.953 292.46 423.885 292.353C422.145 289.685 420.426 286.944 418.765 284.293C416.888 281.303 414.95 278.212 412.978 275.222C411.096 272.356 409.394 269.321 407.755 266.388C406.546 264.223 405.291 261.979 403.974 259.826C403.031 258.277 401.974 256.763 400.956 255.304C400.176 254.174 399.363 253.044 398.611 251.851C398.168 251.123 397.77 250.368 397.418 249.59C396.882 248.16 396.014 246.878 394.887 245.849C393.716 244.874 392.908 243.535 392.592 242.045C392.311 240.925 391.803 239.875 391.1 238.959C389.19 236.583 387.523 234.021 386.126 231.312C385.397 230.006 384.64 228.655 383.866 227.356C382.018 224.394 380.113 221.398 378.276 218.505C376.23 215.283 374.117 211.954 372.059 208.659C371.63 207.969 371.178 207.28 370.737 206.607C368.578 203.795 367.05 200.55 366.255 197.095ZM326.733 197.988C327.641 198.031 328.518 198.334 329.257 198.863C329.997 199.391 330.569 200.121 330.904 200.967C331.825 202.809 332.967 205.098 334.702 205.612C335.288 205.813 335.821 206.143 336.262 206.579C336.702 207.014 337.038 207.544 337.245 208.128C337.589 209.033 338.225 209.797 339.054 210.298C340.741 211.259 342.281 212.458 343.626 213.859C344.27 214.469 344.937 215.096 345.621 215.673C346.929 216.855 348.099 218.183 349.108 219.629C349.878 220.695 350.712 221.712 351.606 222.676C355.398 226.592 359.326 230.498 363.124 234.268C364.695 235.828 366.265 237.391 367.832 238.959C368.537 239.667 369.247 240.372 369.963 241.073C371.494 242.588 373.082 244.153 374.58 245.747C376.621 247.663 377.837 250.298 377.971 253.095C377.101 252.077 376.236 251.02 375.4 249.992C373.608 247.714 371.693 245.537 369.663 243.469C359.451 233.46 348.577 222.987 335.454 210.496C333.815 208.936 332.221 207.268 330.678 205.658C327.301 201.852 323.497 198.448 319.341 195.512C317.825 194.415 316.464 193.118 315.294 191.658C314.978 191.302 314.667 190.946 314.35 190.595C313.757 190.003 313.075 189.509 312.327 189.131C311.6 188.827 310.946 188.371 310.409 187.794C309.872 187.217 309.465 186.532 309.213 185.785C308.879 184.655 307.585 183.881 306.212 183.05C305.481 182.634 304.783 182.162 304.126 181.637L303.442 181.072C300.86 178.867 298.192 176.59 295.773 174.289C293.354 171.989 290.687 169.824 288.149 167.744C283.472 164.234 279.231 160.178 275.518 155.66L275.45 155.502C275.224 155.191 274.941 154.801 274.636 154.745C272.887 154.297 271.364 153.22 270.358 151.721C269.778 150.994 269.124 150.33 268.408 149.737L267.876 149.33C265.972 147.872 264.005 146.363 262.168 144.758C260.772 143.543 259.393 142.254 258.06 141.011C255.504 138.529 252.797 136.207 249.955 134.059C248.445 132.921 247.002 131.698 245.631 130.396C244.456 129.317 243.241 128.203 241.952 127.22L241.325 126.739C234.978 121.873 228.422 116.837 222.262 111.479C221.55 110.863 220.843 110.196 220.154 109.552C218.511 107.885 216.679 106.417 214.694 105.177C211.604 103.315 208.687 101.18 205.979 98.7961C204.284 97.3661 202.475 95.891 200.622 94.5684C197.332 92.2229 194.15 89.6117 191.076 87.0852C188.001 84.5588 184.673 81.8289 181.298 79.4438C177.568 76.7987 173.844 74.0236 170.244 71.3389C167.785 69.5077 165.248 67.6143 162.721 65.7717C158.873 62.9457 154.928 60.1763 151.113 57.469L145.959 53.8122L142.522 51.3649C138.951 48.8271 135.271 46.2103 131.677 43.616C131.178 43.2286 130.719 42.7912 130.309 42.3104C130.1 42.0844 129.88 41.847 129.654 41.6152C129.863 41.4796 130.027 41.3609 130.151 41.2648C130.275 41.1687 130.439 41.0557 130.49 41.0557C131.287 41.5418 132.101 42.0109 132.881 42.463C134.883 43.5328 136.776 44.7954 138.532 46.2329C139.443 46.9352 140.468 47.4761 141.562 47.8324C143.336 48.5276 145.173 49.2454 145.874 51.4666L150 54.4113L150.31 54.6317C154.035 57.2881 157.878 60.0293 161.614 62.7536L164.4 64.7713L164.62 64.9296C169.142 68.1795 173.765 71.548 178.258 74.9674C180.038 76.3239 181.779 77.7934 183.463 79.2121C186.091 81.5216 188.858 83.6677 191.748 85.6383C196.507 88.7356 201.017 92.2963 205.375 95.7384C207.268 97.2362 209.229 98.7791 211.185 100.26C213.801 102.255 216.339 104.442 218.797 106.562C221.414 108.823 224.116 111.146 226.913 113.243C232.842 117.691 239.703 122.919 246.061 128.638C246.711 129.204 247.355 129.82 248 130.419C250.179 132.561 252.541 134.509 255.058 136.24C257.607 137.974 260.022 139.897 262.281 141.994C263.937 143.452 265.672 144.961 267.447 146.312C269.222 147.663 270.838 149.093 272.477 150.517C273.918 151.789 275.41 153.106 276.953 154.304C277.11 154.412 277.3 154.464 277.49 154.451C278.004 154.411 278.513 154.313 279.005 154.157C279.457 154.038 279.977 153.903 280.485 153.818C280.268 154.329 280.164 154.881 280.18 155.436C280.197 155.992 280.334 156.537 280.581 157.034C280.745 157.357 280.981 157.639 281.27 157.859C281.558 158.078 281.893 158.229 282.249 158.3C284.272 158.819 286.078 159.969 287.403 161.584C288.204 162.444 289.099 163.212 290.071 163.873C290.612 164.322 291.023 164.907 291.263 165.568C291.504 166.222 291.904 166.805 292.427 167.264C297.072 170.292 301.382 173.805 305.285 177.743C305.829 178.357 306.308 179.026 306.715 179.738C307.191 180.615 307.805 181.409 308.535 182.089C309.491 182.82 310.513 183.461 311.587 184.005C313.239 184.707 314.68 185.827 315.769 187.255C316.562 188.46 317.552 189.525 318.696 190.403C320.04 191.378 321.132 192.661 321.878 194.145C322.048 194.54 322.59 194.749 323.167 194.97C323.605 195.107 324.017 195.315 324.388 195.586C324.759 195.956 325.078 196.374 325.337 196.829C325.716 197.395 326.066 197.96 326.417 197.96L326.733 197.988Z" fill="#F5E4D7"/>
<path d="M151.916 148.33C148.167 144.223 144.059 140.459 139.641 137.082C136.544 135.07 134.023 132.453 131.044 130.357C123.403 124.982 116.079 119.087 108.794 113.231C102.577 108.229 96.055 103.623 89.8777 98.5812C83.8073 93.5389 77.4087 88.9054 70.7242 84.7113C68.3222 83.2361 66.2028 81.354 63.897 79.828C58.85 76.499 53.8539 72.9948 49.0952 69.208C45.6271 67.0953 42.3499 64.6841 39.3009 62.0017C38.6209 61.2637 37.7022 60.7893 36.7068 60.6622C30.2921 60.2101 26.6977 54.9481 21.8033 51.9582C18.0054 49.6409 14.7444 46.4589 11.0368 43.9777C9.0719 42.6854 6.87384 41.7889 4.5657 41.3382C3.2319 41.0839 1.64941 42.1182 -0.000854492 42.6268C0.931671 43.8816 1.69464 44.9837 2.54803 46.018C3.01373 46.5268 3.51416 47.0028 4.04575 47.4423L8.91748 51.3478C8.99448 51.7592 9.15378 52.1508 9.38577 52.4991C9.61777 52.8474 9.91772 53.1453 10.2676 53.3749C10.6175 53.6044 11.0102 53.761 11.4221 53.8352C11.8339 53.9093 12.2565 53.8995 12.6646 53.8064C14.8404 53.3712 13.3088 57.158 15.9934 56.4798C17.8641 56.005 18.3671 57.9154 19.2657 59.3566C20.4954 60.9568 22.1061 62.2237 23.951 63.0417C28.7771 66.0099 33.3312 69.3992 37.5602 73.17C39.1539 74.4078 42.6467 72.9665 42.4884 76.5612C44.8565 76.7647 45.8399 80.0145 47.3658 79.9524C51.1807 79.7998 51.2429 83.9087 54.2778 84.8809C56.9115 85.7117 58.7539 88.8768 61.4554 90.5328C65.2364 92.8784 68.5483 95.953 72.2275 98.4795C77.5148 101.906 82.557 105.696 87.3175 109.823C89.8833 112.169 92.6979 114.237 95.4389 116.379C97.0497 117.634 98.7395 118.781 100.226 119.861C100.791 119.748 101.803 119.296 101.972 119.527C108.34 126.869 115.847 133.138 124.206 138.094C127.269 140.191 129.372 143.305 132.683 145.278C136.253 147.768 139.578 150.592 142.613 153.71C144.603 155.491 146.038 157.927 149.469 157.379C150.763 157.169 151.583 158.701 152.046 160.334C152.337 161.373 152.877 162.325 153.619 163.108C154.362 163.89 155.285 164.478 156.307 164.822C159.028 165.854 161.369 167.689 163.022 170.084C165.308 173.054 168.141 175.56 171.369 177.466C174.37 179.223 175.777 183.061 179.451 184.191C180.016 184.355 180.35 185.073 180.819 185.503C186.052 190.318 191.133 195.326 196.57 199.904C206.003 207.845 214.955 216.295 224.054 224.603C228.519 228.678 232.91 232.855 237.386 236.924C238.878 238.275 241.246 239.027 242.094 240.643C243.054 242.33 244.457 243.722 246.152 244.667C246.93 245.461 247.899 246.042 248.965 246.355C250.032 246.668 251.161 246.702 252.245 246.453L250.43 248.392L257.727 253.744L256.743 254.875C257.933 255.917 259.236 256.823 260.626 257.576C262.506 258.112 264.432 258.468 266.379 258.639L262.282 260.934L268.861 264.325L271.325 262.008L273.218 263.901L270.5 265.178C270.649 265.764 270.859 266.332 271.127 266.874C271.878 267.821 272.563 268.818 273.178 269.858C274.184 272.119 274.105 272.147 277.864 273.684C278.447 273.983 278.927 274.452 279.237 275.03C280.143 276.771 281.569 278.185 283.318 279.076C283.069 279.676 282.447 280.552 282.645 280.829C283.142 281.507 284.295 281.755 284.691 282.456C286.386 285.418 287.285 289.109 291.818 288.849C292.931 290.784 294.327 292.543 295.96 294.065C297.944 295.439 296.78 298.66 298.153 298.785C301.267 299.056 299.419 301.402 300.312 302.447C302.573 304.759 305.048 299.395 307.529 302.628C306.785 297.75 304.623 293.198 301.312 289.538C296.791 284.711 292.835 279.433 288.647 274.368C284.459 269.304 279.367 264.986 274.716 260.284C273.269 258.809 271.992 257.164 270.635 255.593C268.155 254.651 265.948 253.109 264.209 251.105C263.169 249.762 261.948 248.569 260.581 247.561C259.055 246.617 259.739 244.204 257.139 243.74C255.443 243.435 254.172 240.875 252.578 239.49C250.984 238.105 249.142 237.258 247.78 235.816C246.539 234.113 245.049 232.606 243.36 231.346C241.526 230.25 239.989 228.72 238.884 226.892C237.066 224.284 234.719 222.088 231.995 220.449C229.988 218.996 228.191 217.38 226.343 215.769C224.772 214.39 223.557 212.632 222.116 211.151C220.639 209.786 218.994 208.614 217.221 207.664C215.203 205.912 213.407 203.919 211.875 201.729C210.677 200.435 209.399 198.525 207.964 198.338C205.986 198.067 205.194 196.677 203.815 195.908C202.013 194.902 202.369 192.025 199.921 191.759C199.469 188.673 196.09 189.663 194.603 187.927C192.456 185.429 190.116 183.095 187.821 180.653L186.849 181.755C184.95 179.455 183.108 177.234 181.243 174.973C180.904 174.566 180.401 173.843 180.078 173.922C177.733 174.312 176.812 172.401 175.427 171.237C173.811 169.682 172.062 168.271 170.199 167.021C166.854 164.966 163.843 162.412 161.27 159.447C159.431 157.245 157.176 155.426 154.635 154.095C153.538 153.651 152.647 152.812 152.138 151.744C151.628 150.676 151.537 149.456 151.882 148.324" fill="#F5E4D7"/>
<path d="M139.928 148.33C139.584 149.462 139.675 150.682 140.184 151.75C140.694 152.818 141.584 153.656 142.681 154.1C145.222 155.432 147.477 157.25 149.316 159.453C151.889 162.417 154.901 164.971 158.246 167.026C160.108 168.277 161.857 169.687 163.473 171.243C164.864 172.407 165.785 174.312 168.125 173.927C168.447 173.871 168.944 174.566 169.289 174.979C171.154 177.2 172.996 179.438 174.895 181.761L175.867 180.659C178.162 183.101 180.502 185.435 182.649 187.933C184.142 189.674 187.521 188.685 187.968 191.765C190.415 192.031 190.053 194.907 191.862 195.914C193.241 196.688 194.032 198.073 196.01 198.344C197.446 198.542 198.723 200.458 199.921 201.735C201.453 203.927 203.249 205.922 205.267 207.675C207.04 208.625 208.685 209.797 210.162 211.162C211.603 212.643 212.812 214.401 214.389 215.78C216.232 217.391 218.029 219.002 220.041 220.46C222.76 222.097 225.103 224.289 226.919 226.892C228.024 228.72 229.561 230.25 231.395 231.346C233.084 232.606 234.574 234.113 235.815 235.816C237.177 237.263 239.087 238.173 240.613 239.49C242.139 240.807 243.439 243.446 245.174 243.74C247.774 244.204 247.09 246.617 248.616 247.561C249.983 248.569 251.204 249.762 252.244 251.105C253.984 253.109 256.194 254.651 258.676 255.593C258.523 254.377 258.794 252.806 258.111 252.032C256.98 250.692 255.081 250.014 253.815 248.748C252.549 247.482 251.832 245.673 250.566 244.407C249.3 243.141 247.327 242.514 246.242 241.152C243.39 238.028 240.371 235.06 237.199 232.261C234.068 229.074 230.983 225.863 227.716 222.794C222.064 217.47 216.65 211.869 210.557 207.121C206.567 204.013 203.385 200.096 199.407 197.134C191.969 191.607 185.639 184.796 178.094 179.382C173.889 176.369 170.284 172.52 166.378 169.089C160.596 163.9 154.511 159.057 148.157 154.586C146.244 152.918 144.423 151.146 142.703 149.279C141.845 148.795 140.904 148.473 139.928 148.33" fill="#F5E4D7"/>
</g>
<defs>
<clipPath id="clip0">
<rect width="445" height="328" fill="white" transform="matrix(-1 0 0 1 445 0)"/>
</clipPath>
</defs>
</svg>
