<svg width="88" height="88" viewBox="0 0 88 88" fill="none" xmlns="http://www.w3.org/2000/svg">
<path d="M33 43.9998L40.3333 51.3332L55 36.6665" stroke="black" stroke-linecap="round" stroke-linejoin="round"/>
<path d="M43.9997 11C52.5644 18.5774 63.7428 22.5227 75.1664 22C76.8296 27.6577 77.3385 33.592 76.6628 39.4503C75.9872 45.3086 74.1409 50.9713 71.2335 56.1019C68.3262 61.2326 64.4172 65.7264 59.7387 69.3164C55.0603 72.9065 49.7079 75.5194 43.9997 77C38.2915 75.5194 32.9391 72.9065 28.2607 69.3164C23.5823 65.7264 19.6733 61.2326 16.7659 56.1019C13.8585 50.9713 12.0122 45.3086 11.3366 39.4503C10.661 33.592 11.1699 27.6577 12.8331 22C24.2567 22.5227 35.435 18.5774 43.9997 11" stroke="black" stroke-linecap="round" stroke-linejoin="round"/>
</svg>
