<svg width="88" height="88" viewBox="0 0 88 88" fill="none" xmlns="http://www.w3.org/2000/svg">
<path d="M44 77C62.2254 77 77 62.2254 77 44C77 25.7746 62.2254 11 44 11C25.7746 11 11 25.7746 11 44C11 62.2254 25.7746 77 44 77Z" stroke="black" stroke-linecap="round" stroke-linejoin="round"/>
<path d="M34.834 55C36.0289 56.2195 37.4551 57.1884 39.0291 57.8498C40.6031 58.5112 42.2933 58.8519 44.0007 58.8519C45.708 58.8519 47.3982 58.5112 48.9722 57.8498C50.5462 57.1884 51.9724 56.2195 53.1673 55" stroke="black" stroke-linecap="round" stroke-linejoin="round"/>
<circle cx="55" cy="37" r="1" fill="black"/>
<circle cx="33" cy="37" r="1" fill="black"/>
</svg>
