<svg width="48" height="48" viewBox="0 0 48 48" fill="none" xmlns="http://www.w3.org/2000/svg">
<path d="M45.0792 12.84C44.8416 11.8908 44.3578 11.0211 43.6765 10.3188C42.9952 9.61648 42.1407 9.10637 41.1992 8.84C37.7592 8 23.9992 8 23.9992 8C23.9992 8 10.2392 8 6.79919 8.92C5.85768 9.18637 5.00314 9.69648 4.32188 10.3988C3.64062 11.1011 3.15677 11.9708 2.91919 12.92C2.28962 16.4111 1.98166 19.9526 1.99919 23.5C1.97675 27.0741 2.28473 30.6426 2.91919 34.16C3.18111 35.0797 3.6758 35.9163 4.35548 36.589C5.03515 37.2616 5.87683 37.7476 6.79919 38C10.2392 38.92 23.9992 38.92 23.9992 38.92C23.9992 38.92 37.7592 38.92 41.1992 38C42.1407 37.7336 42.9952 37.2235 43.6765 36.5212C44.3578 35.8189 44.8416 34.9492 45.0792 34C45.7039 30.5352 46.0118 27.0207 45.9992 23.5C46.0216 19.9259 45.7137 16.3574 45.0792 12.84V12.84Z" stroke="black" stroke-width="2" stroke-linecap="round" stroke-linejoin="round"/>
<path d="M20 30.04L31.5 23.5L20 16.96V30.04Z" stroke="black" stroke-width="2" stroke-linecap="round" stroke-linejoin="round"/>
</svg>
