<svg width="329" height="400" viewBox="0 0 329 400" fill="none" xmlns="http://www.w3.org/2000/svg">
<path d="M-0.000518799 377.845C0.183075 378.801 0.649719 379.694 1.35031 380.431C1.55936 380.739 1.74808 381.058 1.9155 381.386L2.16983 381.838C2.27307 382.012 2.32739 382.205 2.32809 382.402C2.2514 382.922 2.00113 383.41 1.61029 383.799C1.21692 384.194 0.966553 384.686 0.892487 385.212C0.912506 385.632 1.11551 386.028 1.45767 386.314C1.9393 386.706 2.22797 387.255 2.26025 387.838C2.13525 388.687 1.76065 389.49 1.17508 390.165L1.11292 390.256C0.854462 390.587 0.705505 390.976 0.68338 391.379C0.68338 392.263 1.62161 393.193 3.58282 395.047L5.63449 394.813H5.70795L6.96835 394.676C6.93442 394.874 6.91748 395.088 6.90616 395.291C6.91061 395.747 6.80655 396.199 6.60095 396.617C6.27872 397.063 5.87787 397.46 5.41403 397.79C5.21622 397.948 5.01276 398.11 4.84885 398.298C4.92566 398.376 4.99738 398.457 5.06363 398.542C5.21622 398.725 5.36884 398.918 5.561 398.954C6.22794 399.071 6.91745 399.238 7.58438 399.396C9.21631 399.906 10.9507 400.096 12.6712 399.955C13.8993 399.625 15.0151 399.022 15.9154 398.202C16.6089 397.642 17.3667 397.15 18.1761 396.734L19.397 396.16C25.7272 393.193 32.2722 390.129 38.3763 386.563C39.614 385.842 40.9366 385.201 42.214 384.577C44.6726 383.496 46.9625 382.13 49.0245 380.512C49.5765 380.148 50.222 379.916 50.901 379.837C51.5847 379.759 52.2347 379.524 52.7888 379.156C53.0614 378.891 53.2795 378.585 53.4331 378.252C53.8174 377.545 54.213 376.819 55.643 377.103C56.0612 377.19 56.6434 376.824 57.1068 376.534L57.2255 376.458C59.3676 375.127 61.6397 373.918 63.8383 372.724C66.037 371.53 68.2581 370.347 70.3663 369.036C73.2319 367.263 76.2557 365.673 79.1777 364.134L80.5738 363.397C82.1507 362.564 83.6824 361.604 85.1632 360.674C87.832 358.845 90.7516 357.332 93.8502 356.173C94.0097 356.083 94.1418 355.959 94.2346 355.812L94.2628 355.776C95.0579 354.835 95.8491 353.893 96.6366 352.952L97.4279 352.002C99.2592 352.992 100.503 352.134 101.814 351.225L102.339 350.864C103.01 350.447 103.717 350.08 104.453 349.766C105.333 349.404 106.162 348.948 106.923 348.41C109.462 346.553 112.178 344.901 115.039 343.472C116.684 342.593 118.385 341.684 119.991 340.703C121.087 340.028 122.206 339.398 123.5 338.671C124.128 338.321 124.795 337.945 125.512 337.538C125.781 338.261 125.924 339.017 125.936 339.779C125.908 340.618 125.685 341.443 125.284 342.201C124.882 342.959 124.309 343.634 123.602 344.183C123.087 344.599 122.517 344.957 121.907 345.25C120.674 345.911 119.397 346.591 119.233 348.237C117.538 348.136 116.916 349.157 116.311 350.148C115.986 350.878 115.386 351.482 114.616 351.854C114.075 352.084 113.605 352.43 113.248 352.861C112.891 353.293 112.658 353.797 112.57 354.329C112.395 355.131 111.934 355.86 111.258 356.406C109.625 355.68 109.625 355.68 105.844 359.124C104.935 359.73 104.182 360.504 103.635 361.395C103.089 362.286 102.763 363.272 102.679 364.286C102.074 364.382 101.458 364.479 100.825 364.586H100.751L99.0557 364.86L99.7565 365.566L101.153 366.989L99.18 366.481L96.9701 365.917C96.9108 366.492 96.7526 367.056 96.501 367.588C96.1939 368.233 96.0141 368.92 95.9697 369.62C95.9762 370.229 96.172 370.824 96.5349 371.337V371.388C96.5349 371.566 95.8228 372.125 95.0032 372.77C94.568 373.11 94.1215 373.466 93.7372 373.786L97.3997 375.554L100.712 377.149C104.614 375.354 108.2 373.052 111.354 370.316C112.948 368.904 114.689 367.578 116.373 366.298C118.058 365.017 119.923 363.595 121.567 362.122C124.009 359.942 126.242 357.504 128.401 355.141L129.723 353.704C130.653 352.751 131.66 351.861 132.736 351.042C134.789 349.643 136.433 347.818 137.529 345.723C140.894 343.951 143.637 341.363 145.441 338.255C146.951 335.852 148.913 333.703 151.24 331.904C154.123 329.618 156.181 326.611 157.152 323.268C157.458 322.296 157.61 321.29 157.604 320.281C157.604 319.823 157.65 319.351 157.7 318.894L153.586 312.833L153.281 312.472L152.874 311.964L152.778 311.852C149.268 307.849 149.2 307.788 144.237 309.419C142.079 310.176 139.971 311.045 137.924 312.02C136.997 312.442 136.048 312.874 135.098 313.28L134.968 315.459V315.49L134.85 317.522C134.595 317.344 134.386 317.171 134.2 317.014C133.967 316.783 133.673 316.608 133.346 316.506C130.486 315.967 127.53 315.678 125.535 318.436C124.568 318.406 123.604 318.556 122.704 318.877C121.804 319.197 120.988 319.682 120.307 320.301C119.332 321.067 118.207 321.663 116.989 322.059C114.882 322.672 112.835 323.44 110.868 324.355C110.037 324.716 109.173 325.087 108.342 325.427C107.811 325.64 107.302 325.879 106.765 326.128H106.737L106.171 326.397C105.74 325.981 105.488 325.441 105.459 324.873C105.659 323.826 106.296 322.886 107.24 322.247C110.258 319.559 113.316 316.811 116.283 314.149C118.544 312.117 120.804 310.084 123.065 308.052C127.453 304.15 131.475 299.929 135.093 295.433C135.551 294.943 136.109 294.536 136.737 294.234C137.282 293.957 137.782 293.616 138.224 293.218C140.971 290.525 143.847 287.589 147.267 283.977C148.291 282.937 149.384 281.953 150.539 281.03C152.75 279.414 154.588 277.424 155.948 275.173C156.452 274.376 157.138 273.683 157.96 273.141C158.676 272.651 159.305 272.067 159.826 271.408C160.439 270.588 161.192 269.859 162.058 269.249C162.329 269.036 162.623 268.817 162.889 268.584C165.446 266.458 167.634 264.001 169.383 261.293C169.752 260.831 170.233 260.45 170.79 260.181C171.587 259.713 172.412 259.231 172.412 258.347C172.396 257.965 172.282 257.591 172.079 257.255C172.571 256.914 173.085 256.579 173.582 256.239C174.713 255.532 175.789 254.758 176.804 253.922C181.324 249.861 185.425 245.44 189.057 240.713C190.689 238.757 192.432 236.879 194.28 235.084C195.077 234.282 195.896 233.459 196.682 232.636C198.27 230.974 199.887 229.293 201.452 227.672C204.951 224.05 208.562 220.301 211.993 216.521C218.651 209.19 225.264 201.605 231.413 194.503C232.495 193.253 233.58 192.005 234.669 190.759L234.703 190.723C239.055 185.74 243.548 180.563 247.606 175.284C251.139 170.666 254.954 166.14 258.667 161.74C262.765 156.884 266.998 151.864 270.853 146.708C276.013 139.809 282.156 131.721 288.498 124.045C291.889 119.919 295.133 115.581 298.253 111.39C300.972 107.737 303.775 103.957 306.697 100.335C309.065 97.4037 311.14 94.2082 313.146 91.1143C314.599 88.8789 316.096 86.5725 317.668 84.3829C319.194 82.2898 320.624 80.1002 322.014 77.9868C323.614 75.5534 325.264 73.0386 327.05 70.656C327.322 70.268 327.552 69.8581 327.74 69.4316C327.836 69.2284 327.937 69.0252 328.039 68.822C325.213 67.3741 323.794 68.822 322.427 70.2343L322.02 70.6458C321.057 71.6544 320.153 72.7074 319.312 73.8007C318.747 74.4865 318.137 75.2587 317.391 76.1579C317.943 73.165 319.402 70.3667 321.607 68.0701C322.031 67.5621 322.432 67.0896 322.811 66.5918C323.47 65.8928 323.876 65.0297 323.975 64.1177C323.947 63.4735 323.724 62.8483 323.331 62.3091L320.675 63.4877L319.154 57.8689C318.668 58.0569 318.227 58.2652 317.843 58.4532C317.108 58.8037 316.526 59.0831 316.147 58.9612C315.769 58.8392 315.345 58.255 315.017 57.6759C314.864 57.4218 314.712 57.1678 314.542 56.924C314.008 57.178 313.534 57.5231 313.146 57.94C312.819 58.395 312.347 58.7504 311.791 58.9598C311.235 59.1693 310.622 59.2229 310.032 59.1136C309.845 59.073 309.501 59.2863 309.308 59.4184C309.1 59.5471 308.92 59.709 308.777 59.896C308.977 60.2169 309.091 60.5751 309.111 60.9425C309.111 61.7299 308.376 62.111 307.596 62.5174C306.816 62.9238 306.143 63.2744 305.957 63.9958L305.883 64.3005C305.612 65.4385 305.166 67.3487 302.78 67.4148C302.639 67.4148 302.571 67.8466 302.492 68.3394C302.374 69.0709 302.227 69.9854 301.791 70.275C301.513 70.49 301.203 70.6695 300.87 70.8084C300.237 71.0421 299.638 71.2606 299.638 72.0226C299.64 72.1937 299.662 72.364 299.706 72.5306C299.732 72.6681 299.744 72.8077 299.74 72.9472C299.74 73.2825 299.683 73.5771 299.621 73.5873C296.688 74.0953 296.1 76.0208 295.529 77.8954C295.301 78.8935 294.872 79.8457 294.263 80.7048C293.998 81.0507 293.765 81.4161 293.568 81.797C293.003 82.8131 292.437 83.8291 290.776 83.9104C290.782 83.9984 290.782 84.0866 290.776 84.1746C290.776 85.2466 289.753 85.6276 288.848 85.9679L288.775 85.9933C287.82 86.3439 286.921 86.6792 286.921 87.5937C286.923 87.7653 286.95 87.936 287 88.1017C287.052 88.2669 287.079 88.4379 287.079 88.6097C287.079 89.453 286.288 89.8899 285.519 90.3116C284.751 90.7332 283.954 91.1651 283.954 91.9779C283.966 92.2983 284.057 92.6123 284.219 92.8975C284.219 93.0346 283.558 93.4055 282.789 93.8729C282.196 94.2234 281.518 94.6146 281.066 94.9448C280.857 95.1641 280.702 95.4203 280.611 95.6968C280.519 95.9734 280.493 96.264 280.534 96.5502C280.571 96.8339 280.545 97.1214 280.458 97.396C280.371 97.6707 280.224 97.9271 280.026 98.1505C279.795 98.2943 279.534 98.3945 279.26 98.4452C278.985 98.4958 278.701 98.4958 278.426 98.4451C278.251 98.9125 278.036 99.3799 277.833 99.8371C277.311 100.831 276.964 101.892 276.804 102.982C276.606 105.375 275.482 106.345 272.91 106.335C272.61 106.353 272.319 106.432 272.058 106.567C271.797 106.702 271.575 106.888 271.406 107.112C271.173 107.58 270.984 108.064 270.841 108.56C270.676 109.272 270.36 109.948 269.909 110.551C269.313 111.081 268.616 111.509 267.851 111.816C267.207 112.121 266.648 112.39 266.648 112.584C266.715 112.843 266.751 113.109 266.755 113.376C266.755 114.661 265.698 115.215 264.675 115.749C263.782 116.216 262.855 116.699 262.589 117.669L263.72 119.701L264.285 120.717C261.733 121.656 259.542 123.245 257.983 125.289C256.648 126.93 254.958 128.312 253.015 129.354C252.426 129.604 251.93 130.002 251.587 130.499C251.243 130.997 251.066 131.572 251.076 132.158C251.076 132.328 251.087 132.497 251.11 132.666C251.161 133.033 251.187 133.403 251.189 133.773C251.244 134.389 251.153 135.009 250.922 135.59C250.691 136.172 250.325 136.703 249.848 137.148C249.372 137.594 248.795 137.943 248.158 138.173C247.52 138.403 246.835 138.509 246.148 138.483C245.441 138.544 244.226 139.184 244.209 139.595C244.093 140.501 243.736 141.369 243.169 142.125C242.601 142.881 241.839 143.503 240.948 143.939C239.454 144.745 238.316 145.991 237.726 147.465C237.422 148.173 236.901 148.79 236.223 149.243C235.717 149.553 235.293 149.96 234.98 150.434C234.668 150.908 234.475 151.438 234.414 151.986C234.416 152.186 234.439 152.385 234.482 152.581C234.482 152.697 234.183 152.84 233.832 153.002C233.593 153.109 233.362 153.231 233.143 153.368C232.862 153.564 232.594 153.775 232.34 153.998C231.896 154.446 231.34 154.794 230.718 155.014C230.301 155.096 229.936 155.32 229.7 155.64C229.463 155.959 229.375 156.349 229.452 156.726V157.422C229.518 157.781 229.447 158.15 229.25 158.469C229.053 158.787 228.742 159.036 228.367 159.175C226.89 159.815 225.58 160.729 224.523 161.857C223.955 162.442 223.443 163.069 222.992 163.732C222.506 164.46 221.938 165.141 221.296 165.764C220.31 166.738 219.602 167.913 219.233 169.188C219.12 169.478 219.013 169.767 218.888 170.062C218.628 170.697 217.662 171.154 216.724 171.586C215.786 172.018 214.926 172.439 214.864 172.973C214.736 173.738 214.414 174.467 213.924 175.103C213.435 175.74 212.789 176.268 212.038 176.646C211.369 177.056 210.759 177.541 210.224 178.089C209.572 178.82 208.922 179.555 208.274 180.293C207.291 181.416 206.273 182.569 205.25 183.692C204.953 184.003 204.636 184.298 204.301 184.576C203.794 184.907 203.372 185.331 203.064 185.821C202.756 186.311 202.568 186.855 202.515 187.416C202.514 187.586 202.527 187.756 202.554 187.924C202.554 188.066 202.243 188.214 201.882 188.376C201.514 188.518 201.177 188.718 200.887 188.966C200.335 189.514 199.722 190.01 199.056 190.444C198.236 190.851 197.542 191.436 197.039 192.146C196.535 192.856 196.238 193.668 196.173 194.508V194.63C196.173 194.874 195.795 195.108 195.399 195.351C195.145 195.498 194.908 195.669 194.692 195.859C191.177 199.238 187.627 202.672 184.191 206.02L182.399 207.752C182.461 208.003 182.493 208.258 182.496 208.514C182.496 209.962 181.297 210.623 180.139 211.258C179.485 211.571 178.894 211.977 178.387 212.462C176.629 214.387 174.769 216.292 172.972 218.136C171.943 219.188 170.886 220.275 169.858 221.352C169.66 221.61 169.53 221.906 169.479 222.216L169.445 222.338V222.363C169.296 224.044 168.762 225.678 167.877 227.164C166.992 228.651 165.775 229.956 164.302 231C164.421 231.564 164.596 232.153 164.771 232.722C165.117 233.692 165.324 234.697 165.387 235.714C165.391 236.045 165.347 236.374 165.257 236.695C164.833 238.132 161.301 238.681 160.261 238.818L164.155 233.23C163.04 233.683 162.032 234.324 161.188 235.12C160.622 235.587 160.261 235.923 159.831 235.912C158.452 235.862 158.249 236.522 158.045 237.157C157.98 237.463 157.836 237.752 157.627 238C155.457 240.159 153.218 242.334 151.054 244.437C148.182 247.226 145.21 250.112 142.355 253.002C141.891 253.419 141.352 253.763 140.761 254.018C139.699 254.527 138.597 255.085 138.597 256.33C138.604 256.663 138.667 256.994 138.783 257.311C137.869 257.932 137.058 258.667 136.376 259.495C135.819 260.359 135.03 261.083 134.081 261.602C133.132 262.12 132.053 262.416 130.944 262.462C130.842 262.462 130.492 262.462 130.379 262.589C128.016 265.17 125.631 267.806 123.325 270.352L122.229 271.561C122.294 271.798 122.328 272.042 122.33 272.287C122.259 272.849 122.047 273.389 121.709 273.866C121.371 274.343 120.917 274.745 120.381 275.041C120.098 275.259 119.815 275.483 119.544 275.716L117.351 277.698C112.861 281.939 108.068 285.912 103.001 289.591C102.786 289.738 102.56 289.89 102.328 290.043C100.808 291.059 99.0896 292.187 99.0896 294.219C99.0901 294.495 99.1185 294.77 99.1744 295.042V295.087C99.1744 295.443 98.4453 296.027 97.9536 296.251C97.4186 296.474 96.8672 296.664 96.3032 296.82C95.3511 297.025 94.4637 297.423 93.7089 297.983C93.2299 298.527 92.9041 299.166 92.7594 299.848C92.6297 300.552 92.2742 301.207 91.7364 301.732C88.9339 303.775 85.9318 305.586 82.7667 307.143C79.4093 308.905 76.9328 311.758 75.8487 315.114H71.9319C70.485 316.328 69.106 317.654 67.7721 318.96C66.0443 320.708 64.2002 322.36 62.2501 323.908C58.623 326.573 55.3139 329.569 52.3762 332.849L51.7714 333.555C50.2374 335.944 47.717 337.693 44.7573 338.422C44.4182 338.478 44.1413 338.788 43.853 339.118C43.7131 339.285 43.5602 339.443 43.3952 339.591L37.958 344.163C33.5608 347.861 29.0166 351.682 24.5064 355.406C22.9634 356.681 21.33 357.915 19.7474 359.104C17.0263 361.08 14.4388 363.201 11.9986 365.454C11.5846 365.754 11.0851 365.942 10.5573 365.998C10.3188 366.043 10.0829 366.099 9.85083 366.166V369.707C9.57953 369.829 9.28564 369.976 9.04828 370.113C8.49103 370.453 7.87375 370.705 7.22266 370.86C5.94962 371.006 4.74127 371.449 3.71793 372.145C2.69458 372.841 1.89191 373.766 1.38986 374.828L0.824646 375.808C0.384247 376.423 0.102325 377.119 -0.000518799 377.845ZM130.904 329.227C129.917 330.465 128.68 331.526 127.259 332.356C124.959 333.652 122.59 334.897 120.301 336.151C118.391 337.167 116.435 338.224 114.519 339.286C113.389 339.906 112.321 340.592 111.27 341.257C110.382 341.816 109.472 342.395 108.545 342.928C106.997 343.833 105.386 344.707 103.832 345.55L101.944 346.566C101.249 346.952 100.548 347.328 99.8469 347.704C98.3492 348.512 96.8118 349.34 95.3254 350.244L94.7998 350.564C90.611 353.272 86.171 355.652 81.5289 357.676C81.0327 357.888 80.5547 358.133 80.099 358.408C79.8899 358.53 79.6808 358.647 79.4716 358.759C78.2752 359.43 77.1205 360.159 76.0126 360.943C73.906 362.596 71.435 363.83 68.7612 364.565C68.1707 364.636 67.6216 364.877 67.1956 365.251C64.8661 367.858 61.8408 369.892 58.4012 371.165C57.8699 371.408 57.3442 371.673 56.8299 371.901C55.6344 372.51 54.4846 373.189 53.3878 373.933C51.1108 375.739 48.2676 376.866 45.2491 377.159C44.8138 378.368 43.6608 378.78 42.5474 379.191C41.799 379.374 41.1269 379.75 40.6144 380.274C39.7415 381.352 38.5459 382.185 37.1667 382.677C36.6694 382.905 36.1607 383.139 35.6068 383.423C35.6068 383.007 35.5673 382.611 35.539 382.26C35.5107 381.909 35.4881 381.752 35.4881 381.539C35.4881 381.249 35.539 381.091 35.6464 381.031C38.3141 379.466 41.0553 377.921 43.7061 376.428C46.696 374.741 49.7876 372.999 52.7775 371.226C55.643 369.534 58.6781 368.005 61.6115 366.531C63.7762 365.444 66.02 364.316 68.1734 363.133C69.722 362.284 71.2367 361.334 72.6949 360.42C73.8253 359.719 74.9557 358.987 76.1483 358.312C76.8769 357.913 77.6319 357.555 78.4091 357.24C79.8389 356.757 81.1212 355.977 82.1507 354.964C83.125 353.912 84.4649 353.185 85.9544 352.901C87.0744 352.649 88.1248 352.192 89.0404 351.56C91.416 349.843 93.978 348.345 96.6875 347.089C97.9931 346.434 99.3439 345.753 100.644 345.057C103.605 343.396 106.601 341.684 109.495 340.033C112.716 338.194 116.045 336.294 119.341 334.444C120.03 334.058 120.72 333.652 121.392 333.256C124.205 331.315 127.449 329.941 130.904 329.227ZM130.011 293.701C129.969 294.517 129.665 295.305 129.137 295.97C128.609 296.635 127.878 297.149 127.033 297.45C125.19 298.278 122.901 299.304 122.387 300.864C122.187 301.391 121.856 301.87 121.421 302.266C120.985 302.662 120.456 302.964 119.872 303.15C118.967 303.459 118.203 304.031 117.701 304.776C116.741 306.292 115.541 307.677 114.141 308.885C113.53 309.465 112.903 310.064 112.326 310.679C111.144 311.855 109.817 312.907 108.37 313.813C107.305 314.505 106.287 315.255 105.324 316.059C101.407 319.468 97.5014 322.999 93.7315 326.412C92.1716 327.825 90.6079 329.235 89.0404 330.644C88.332 331.278 87.6274 331.916 86.9266 332.56C85.4118 333.936 83.8463 335.364 82.2524 336.71C80.3363 338.545 77.7014 339.638 74.9049 339.758C75.9222 338.976 76.9791 338.199 78.0078 337.447C80.2849 335.836 82.4623 334.115 84.5302 332.29C94.5398 323.11 105.013 313.336 117.504 301.539C119.064 300.066 120.731 298.633 122.342 297.247C126.148 294.211 129.552 290.791 132.487 287.056C133.585 285.693 134.881 284.47 136.342 283.418C136.698 283.134 137.054 282.854 137.404 282.57C137.996 282.037 138.49 281.423 138.868 280.751C139.173 280.098 139.629 279.51 140.206 279.027C140.782 278.545 141.467 278.178 142.214 277.952C143.344 277.652 144.119 276.489 144.95 275.254C145.365 274.597 145.837 273.97 146.363 273.379L146.928 272.765C149.132 270.443 151.41 268.045 153.71 265.871C156.01 263.696 158.175 261.299 160.255 259.017C163.765 254.813 167.822 251.001 172.339 247.663L172.497 247.602C172.808 247.399 173.198 247.145 173.255 246.871C173.703 245.298 174.779 243.929 176.278 243.025C177.005 242.503 177.67 241.916 178.262 241.272L178.669 240.795C180.127 239.082 181.636 237.315 183.242 235.663C184.457 234.409 185.745 233.169 186.989 231.97C189.471 229.673 191.792 227.24 193.941 224.685C195.078 223.328 196.301 222.03 197.603 220.799C198.683 219.742 199.796 218.65 200.78 217.491L201.26 216.927C206.126 211.222 211.162 205.329 216.52 199.792C217.136 199.151 217.803 198.516 218.448 197.897C220.114 196.42 221.582 194.773 222.822 192.989C224.684 190.211 226.82 187.589 229.203 185.155C230.633 183.631 232.108 182.006 233.431 180.339C235.777 177.382 238.388 174.522 240.914 171.759C243.441 168.995 246.17 166.003 248.556 162.97C251.201 159.617 253.976 156.269 256.66 153.033C258.492 150.823 260.385 148.542 262.228 146.271C265.054 142.811 267.823 139.265 270.53 135.836L274.187 131.203L276.635 128.114C279.172 124.903 281.789 121.596 284.383 118.365C284.771 117.916 285.208 117.504 285.689 117.135C285.915 116.947 286.152 116.749 286.384 116.546C286.52 116.734 286.638 116.881 286.735 116.993C286.831 117.105 286.944 117.252 286.944 117.298C286.458 118.014 285.989 118.746 285.536 119.447C284.467 121.247 283.204 122.948 281.766 124.527C281.064 125.346 280.523 126.267 280.167 127.25C279.472 128.846 278.754 130.497 276.533 131.127L273.588 134.835L273.368 135.115C270.711 138.462 267.97 141.917 265.246 145.275L263.228 147.78L263.07 147.978C259.82 152.042 256.451 156.198 253.032 160.237C251.675 161.837 250.206 163.402 248.787 164.915C246.478 167.278 244.332 169.765 242.361 172.363C239.264 176.641 235.703 180.695 232.261 184.612C230.763 186.314 229.22 188.076 227.739 189.834C225.744 192.186 223.557 194.467 221.438 196.677C219.177 199.03 216.854 201.458 214.757 203.973C210.309 209.302 205.081 215.469 199.361 221.185C198.796 221.769 198.18 222.348 197.581 222.927C195.439 224.886 193.491 227.009 191.759 229.272C190.026 231.564 188.102 233.734 186.005 235.765C184.547 237.254 183.038 238.813 181.687 240.408C180.336 242.004 178.907 243.457 177.482 244.93C176.211 246.225 174.894 247.567 173.695 248.953C173.587 249.095 173.535 249.265 173.548 249.436C173.588 249.899 173.687 250.355 173.842 250.798C173.961 251.204 174.097 251.671 174.181 252.129C173.67 251.933 173.118 251.839 172.563 251.854C172.008 251.869 171.463 251.992 170.966 252.215C170.642 252.362 170.36 252.574 170.141 252.833C169.921 253.093 169.771 253.394 169.699 253.714C169.181 255.533 168.031 257.156 166.416 258.347C165.555 259.067 164.787 259.871 164.127 260.745C163.678 261.231 163.092 261.601 162.431 261.817C161.778 262.033 161.195 262.393 160.735 262.863C157.707 267.038 154.195 270.912 150.257 274.421C149.642 274.91 148.974 275.34 148.262 275.706C147.385 276.134 146.591 276.686 145.91 277.342C145.18 278.202 144.538 279.12 143.994 280.085C143.292 281.571 142.172 282.866 140.745 283.845C139.539 284.558 138.475 285.447 137.596 286.476C136.621 287.685 135.338 288.665 133.855 289.337C133.459 289.489 133.25 289.977 133.03 290.495C132.893 290.889 132.685 291.259 132.414 291.592C132.044 291.926 131.625 292.213 131.17 292.446C130.605 292.786 130.04 293.101 130.04 293.416L130.011 293.701Z" fill="#F5E4D7"/>
<path d="M179.668 136.558C183.775 133.188 187.539 129.495 190.915 125.523C192.928 122.74 195.544 120.474 197.641 117.796C203.016 110.928 208.911 104.344 214.767 97.7953C219.769 92.207 224.375 86.3444 229.417 80.7916C234.459 75.335 239.092 69.5833 243.286 63.5746C244.762 61.4155 246.644 59.5104 248.17 57.4376C251.499 52.9009 255.003 48.41 258.79 44.1324C260.902 41.0148 263.314 38.069 265.996 35.3282C266.734 34.717 267.208 33.8912 267.336 32.9964C267.788 27.2303 273.05 23.9992 276.04 19.5997C278.357 16.1858 281.539 13.2544 284.02 9.92175C285.312 8.15549 286.209 6.17966 286.66 4.10486C286.914 2.90591 285.88 1.48343 285.371 -3.05176e-05C284.116 0.838226 283.014 1.52408 281.98 2.2912C281.471 2.70978 280.995 3.15964 280.556 3.63745L276.65 8.01666C276.239 8.08588 275.847 8.22906 275.499 8.43759C275.15 8.64615 274.853 8.91577 274.623 9.23032C274.393 9.54483 274.237 9.8978 274.163 10.268C274.088 10.6382 274.098 11.0181 274.191 11.3849C274.627 13.3408 270.84 11.9641 271.518 14.3772C271.993 16.0587 270.082 16.5109 268.641 17.3187C267.041 18.424 265.774 19.8719 264.956 21.5302C261.988 25.8684 258.599 29.9621 254.828 33.7635C253.59 35.1962 255.031 38.3358 251.437 38.1935C251.233 40.3222 247.983 41.2061 248.045 42.5778C248.198 46.007 244.089 46.0629 243.117 48.791C242.286 51.1584 239.121 52.8146 237.465 55.2429C235.119 58.6416 232.045 61.6187 229.518 64.9259C226.092 69.6787 222.302 74.2111 218.175 78.4903C215.829 80.7967 213.761 83.3267 211.619 85.7906C210.364 87.2385 209.216 88.7575 208.137 90.0936C208.25 90.6017 208.702 91.511 208.47 91.6634C201.129 97.3869 194.86 104.135 189.904 111.649C187.807 114.403 184.693 116.293 182.72 119.27C180.23 122.478 177.406 125.467 174.287 128.196C172.507 129.984 170.071 131.274 170.619 134.358C170.828 135.521 169.297 136.258 167.663 136.675C166.624 136.936 165.672 137.421 164.89 138.089C164.108 138.757 163.519 139.586 163.176 140.505C162.144 142.95 160.309 145.055 157.914 146.541C154.943 148.596 152.438 151.143 150.532 154.044C148.774 156.742 144.937 158.007 143.806 161.309C143.642 161.817 142.925 162.117 142.495 162.538C137.68 167.243 132.672 171.81 128.094 176.697C120.153 185.176 111.703 193.223 103.395 201.403C99.3199 205.416 95.1431 209.363 91.0736 213.387C89.7228 214.728 88.9711 216.857 87.3546 217.619C85.6678 218.482 84.2761 219.743 83.3305 221.266C82.5366 221.966 81.9556 222.837 81.6429 223.795C81.3302 224.754 81.2963 225.769 81.5444 226.743L79.6058 225.112L74.2534 231.671L73.123 230.787C72.0811 231.856 71.1749 233.027 70.4214 234.277C69.8855 235.967 69.5298 237.698 69.3588 239.449L67.0641 235.766L63.673 241.679L65.9903 243.894L64.0969 245.596L62.8195 243.152C62.2339 243.286 61.6656 243.475 61.1239 243.716C60.1769 244.391 59.1798 245.007 58.1397 245.56C55.8789 246.465 55.8506 246.393 54.3133 249.772C54.0148 250.297 53.5456 250.727 52.9681 251.006C51.2271 251.82 49.8124 253.103 48.9213 254.674C48.3222 254.451 47.4462 253.892 47.1692 254.07C46.491 254.517 46.2423 255.553 45.5415 255.909C42.5798 257.433 38.8891 258.241 39.1491 262.315C37.2135 263.316 35.4552 264.571 33.9324 266.039C32.5589 267.822 29.3373 266.776 29.213 268.01C28.9417 270.809 26.5961 269.148 25.5505 269.951C23.2388 271.983 28.6026 274.208 25.3696 276.438C30.2481 275.769 34.8001 273.826 38.4596 270.85C43.2863 266.786 48.5653 263.23 53.6294 259.465C58.6936 255.701 63.0117 251.123 67.7141 246.942C69.1893 245.642 70.834 244.493 72.4052 243.274C73.3473 241.045 74.8891 239.061 76.8929 237.498C78.2359 236.563 79.4285 235.465 80.4367 234.236C81.3805 232.865 83.7939 233.479 84.2574 231.142C84.5626 229.618 87.1229 228.475 88.5076 227.043C89.8924 225.61 90.7402 223.954 92.1814 222.73C93.8846 221.614 95.3916 220.275 96.6521 218.757C97.7481 217.108 99.2774 215.727 101.106 214.733C103.714 213.099 105.91 210.989 107.549 208.54C109.002 206.737 110.618 205.121 112.229 203.46C113.608 202.048 115.366 200.955 116.847 199.66C118.212 198.333 119.384 196.854 120.334 195.26C122.086 193.446 124.079 191.832 126.268 190.455C127.563 189.378 129.473 188.229 129.66 186.939C129.931 185.161 131.321 184.45 132.09 183.21C133.096 181.589 135.973 181.91 136.238 179.71C139.324 179.303 138.335 176.265 140.07 174.929C142.569 172.999 144.903 170.895 147.345 168.833L146.242 167.959C148.543 166.252 150.764 164.596 153.025 162.919C153.432 162.615 154.155 162.162 154.076 161.873C153.686 159.765 155.596 158.936 156.761 157.692C158.316 156.239 159.727 154.667 160.977 152.993C163.032 149.986 165.586 147.279 168.551 144.966C170.753 143.313 172.572 141.286 173.903 139.001C174.347 138.016 175.186 137.215 176.254 136.757C177.322 136.299 178.542 136.217 179.674 136.527" fill="#F5E4D7"/>
<path d="M179.672 125.783C178.54 125.473 177.32 125.555 176.252 126.012C175.184 126.47 174.345 127.271 173.901 128.257C172.57 130.541 170.751 132.568 168.549 134.221C165.584 136.534 163.03 139.241 160.975 142.248C159.725 143.922 158.314 145.494 156.759 146.947C155.595 148.197 153.69 149.025 154.074 151.128C154.131 151.418 153.435 151.865 153.023 152.175C150.802 153.851 148.564 155.507 146.241 157.214L147.343 158.088C144.901 160.151 142.567 162.254 140.069 164.184C138.328 165.526 139.317 168.564 136.237 168.965C135.971 171.165 133.094 170.84 132.088 172.465C131.314 173.705 129.929 174.416 129.658 176.194C129.46 177.485 127.544 178.633 126.267 179.71C124.075 181.087 122.08 182.701 120.326 184.516C119.376 186.109 118.205 187.588 116.839 188.915C115.358 190.211 113.601 191.298 112.221 192.715C110.611 194.371 109 195.987 107.542 197.796C105.904 200.239 103.713 202.346 101.11 203.978C99.2812 204.972 97.7519 206.353 96.656 208.002C95.3954 209.52 93.8884 210.859 92.1853 211.975C90.7383 213.199 89.8284 214.916 88.5115 216.288C87.1946 217.659 84.5551 218.828 84.2612 220.388C83.7978 222.724 81.3844 222.11 80.4405 223.481C79.4323 224.71 78.2397 225.808 76.8967 226.743C74.8922 228.307 73.3503 230.293 72.4091 232.524C73.6242 232.387 75.1955 232.631 75.9698 232.016C77.3093 231 77.9875 229.293 79.2536 228.155C80.5196 227.017 82.3282 226.372 83.5943 225.234C84.8603 224.096 85.4877 222.323 86.8498 221.348C89.9734 218.784 92.9412 216.07 95.7403 213.219C98.928 210.405 102.138 207.631 105.207 204.695C110.532 199.614 116.133 194.747 120.88 189.271C123.989 185.684 127.906 182.824 130.867 179.247C136.395 172.562 143.205 166.872 148.62 160.09C151.633 156.31 155.482 153.069 158.912 149.558C164.101 144.36 168.944 138.891 173.415 133.179C175.084 131.46 176.855 129.823 178.722 128.277C179.207 127.505 179.529 126.66 179.672 125.783" fill="#F5E4D7"/>
</svg>
