<svg width="156" height="135" viewBox="0 0 156 135" fill="none" xmlns="http://www.w3.org/2000/svg">
<g clip-path="url(#clip0)">
<path d="M155.514 58.0487L154.099 64.5541C125.061 58.5201 104.79 61.2543 93.2882 72.7566C87.4428 78.602 86.5942 84.5417 90.7426 90.5757L113.653 91.4242C116.104 96.5153 117.047 102.361 116.481 108.96C116.293 115.56 113.464 121.594 107.996 127.062C102.528 132.531 95.6452 135.076 87.3485 134.699C79.2403 134.133 71.6036 130.268 64.4382 123.103C57.4614 116.126 53.973 107.923 53.973 98.4952C54.3502 89.0672 58.7814 80.1105 67.2667 71.6252C85.7457 53.1461 115.161 48.6206 155.514 58.0487ZM102.339 4.8743L100.925 11.3797C71.8864 5.34571 51.616 8.07987 40.1137 19.5821C34.2683 25.4276 33.4198 31.3673 37.5682 37.4012L60.4784 38.2497C62.9297 43.3409 63.8725 49.1863 63.3068 55.786C63.1183 62.3857 60.2899 68.4196 54.8216 73.8879C49.3533 79.3562 42.4708 81.9018 34.174 81.5247C26.0659 80.959 18.4291 77.0935 11.2638 69.9281C4.287 62.9513 0.798601 54.7489 0.798601 45.3208C1.17573 35.8927 5.60693 26.936 14.0922 18.4507C32.5713 -0.0283056 61.9869 -4.55379 102.339 4.8743Z" fill="#F5E4D7"/>
</g>
<defs>
<clipPath id="clip0">
<rect width="156" height="135" fill="white"/>
</clipPath>
</defs>
</svg>
