<svg width="88" height="88" viewBox="0 0 88 88" fill="none" xmlns="http://www.w3.org/2000/svg">
<path d="M44.0007 73.3334L18.334 47.6667C16.8895 46.1018 15.7673 44.2677 15.0316 42.2691C14.2959 40.2705 13.961 38.1465 14.0462 36.0185C14.2181 31.7208 16.0902 27.6674 19.2507 24.7501C22.4112 21.8327 26.6012 20.2903 30.8989 20.4622C35.1966 20.6341 39.25 22.5062 42.1674 25.6667C42.71 26.0293 43.348 26.2228 44.0007 26.2228C44.6534 26.2228 45.2914 26.0293 45.834 25.6667C48.7514 22.5062 52.8048 20.6341 57.1025 20.4622C61.4002 20.2903 65.5902 21.8327 68.7507 24.7501C71.9112 27.6674 73.7833 31.7208 73.9552 36.0185C74.1271 40.3162 72.5847 44.5062 69.6674 47.6667L44.0007 73.3334Z" stroke="black" stroke-linecap="round" stroke-linejoin="round"/>
</svg>
