<svg width="48" height="48" viewBox="0 0 48 48" fill="none" xmlns="http://www.w3.org/2000/svg">
<path d="M34 4H14C8.47715 4 4 8.47715 4 14V34C4 39.5228 8.47715 44 14 44H34C39.5228 44 44 39.5228 44 34V14C44 8.47715 39.5228 4 34 4Z" stroke="black" stroke-width="2" stroke-linecap="round" stroke-linejoin="round"/>
<path d="M31.9994 22.7401C32.2462 24.4046 31.9619 26.1045 31.1869 27.5981C30.4119 29.0917 29.1857 30.3029 27.6827 31.0595C26.1796 31.816 24.4763 32.0793 22.815 31.812C21.1537 31.5447 19.6189 30.7603 18.4291 29.5704C17.2392 28.3806 16.4549 26.8459 16.1875 25.1845C15.9202 23.5232 16.1835 21.8199 16.9401 20.3169C17.6966 18.8138 18.9078 17.5876 20.4014 16.8126C21.895 16.0376 23.5949 15.7533 25.2594 16.0001C26.9573 16.2519 28.5291 17.043 29.7428 18.2567C30.9565 19.4704 31.7476 21.0423 31.9994 22.7401Z" stroke="black" stroke-width="2" stroke-linecap="round" stroke-linejoin="round"/>
<path d="M35 13H35.0208" stroke="black" stroke-width="2" stroke-linecap="round" stroke-linejoin="round"/>
</svg>
