<svg width="32" height="18" viewBox="0 0 32 18" fill="none" xmlns="http://www.w3.org/2000/svg">
<path d="M31.9681 5.90918C31.5236 3.59319 26.3605 3.50804 23.2831 3.6613C21.5735 1.37937 18.8551 0 16 0C12.2217 0 8.80238 2.3841 7.50304 5.90918C7.40047 6.19867 7.29789 6.5052 7.22951 6.82876C7.09273 7.33964 7.02434 7.86755 6.99015 8.37843C6.97306 8.58278 6.97306 8.78713 6.97306 8.99149C6.97306 9.34911 6.99015 9.70671 7.04145 10.0643C7.16112 11.0179 7.41756 11.9376 7.82788 12.806C7.10983 12.8231 6.40888 12.8231 5.77631 12.806C2.47668 12.6869 1.60476 12.0227 1.57057 11.7843C1.53637 11.5629 2.06637 10.6434 4.95567 9.33203L5.00696 9.31505V7.62914L4.88729 7.68023C4.75052 7.74834 4.59665 7.79944 4.45987 7.86755C1.24574 9.29797 -0.241658 10.7115 0.0318852 12.0908C0.305429 13.4532 2.20314 14.2194 5.70792 14.3557C6.63112 14.3898 7.65691 14.3728 8.7169 14.3216C10.4095 16.6206 13.1449 18 16 18C18.4619 18 20.7699 17.0293 22.4796 15.2583L22.6163 15.122H20.2741L20.257 15.1391C19.009 16.0075 17.5216 16.4673 16 16.4673C13.9826 16.4673 12.0336 15.633 10.6146 14.1855C10.9224 14.1514 11.2301 14.1343 11.5378 14.1003C13.2474 13.913 15.0255 13.6405 16.8206 13.2999C17.6754 13.1296 18.5303 12.9594 19.368 12.755C20.6844 12.4484 21.9325 12.1078 23.095 11.7502C23.6422 11.5799 24.1892 11.4097 24.7021 11.2223L24.8902 11.1542C25.8646 10.8137 26.7537 10.473 27.5401 10.1154C30.7542 8.70198 32.2416 7.28855 31.9681 5.90918ZM8.59722 7.91863C8.6827 7.39073 8.81948 6.86282 9.00754 6.36897C9.04173 6.28382 9.07592 6.18164 9.11012 6.0965C10.2898 3.32072 12.991 1.54967 16 1.54967C18.0687 1.54967 20.0861 2.41817 21.5051 3.95081C21.8812 4.34248 22.2061 4.78524 22.4624 5.24503C23.1292 6.38599 23.4883 7.68023 23.4883 9.00851C23.4883 9.36609 23.4711 9.70671 23.4198 10.0473C23.0437 10.1665 22.6335 10.2858 22.2402 10.4219C21.5392 10.6263 20.8041 10.8306 20.0519 11.0179C19.8125 11.0691 19.5902 11.1372 19.3509 11.1882C18.4619 11.3926 17.5216 11.597 16.5471 11.7843C14.1194 12.2611 11.6917 12.5847 9.52042 12.7379C9.02463 11.9035 8.7169 11.001 8.58013 10.0473C8.52884 9.70671 8.51174 9.34911 8.51174 9.00851C8.51174 8.63387 8.52883 8.25922 8.59722 7.91863ZM24.1892 5.19394C24.8731 5.17692 25.574 5.17692 26.2408 5.19394C29.5405 5.31315 30.4123 5.97729 30.4466 6.2157C30.4979 6.43709 29.9336 7.3737 26.9246 8.71902C26.3433 8.97446 25.6937 9.24692 25.027 9.48535C25.044 9.33203 25.044 9.16178 25.044 8.99149C25.044 7.6632 24.7534 6.38599 24.1892 5.19394Z" fill="#74645E"/>
</svg>
